<svg xmlns="http://www.w3.org/2000/svg" xmlns:xlink="http://www.w3.org/1999/xlink" fill="none" version="1.1" width="14" height="16" viewBox="0 0 14 16"><g transform="matrix(1,0,0,-1,0,32)"><path d="M4.21875,31.4375Q4.5,31.96875,5.125,32L8.875,32Q9.5,31.96875,9.78125,31.4375L10,31L13,31Q13.4375,31,13.71875,30.71875Q14,30.4375,14,30Q14,29.5625,13.71875,29.28125Q13.4375,29,13,29L1,29Q0.5625,29,0.28125,29.28125Q0,29.5625,0,30Q0,30.4375,0.28125,30.71875Q0.5625,31,1,31L4,31L4.21875,31.4375ZM1,28L13,28L1,28L13,28L13,18Q12.96875,17.15625,12.40625,16.59375Q11.84375,16.03125,11,16L3,16Q2.15625,16.03125,1.59375,16.59375Q1.03125,17.15625,1,18L1,28ZM4,26Q3.53125,25.96875,3.5,25.5L3.5,18.5Q3.53125,18.03125,4,18Q4.46875,18.03125,4.5,18.5L4.5,25.5Q4.46875,25.96875,4,26ZM7,26Q6.53125,25.96875,6.5,25.5L6.5,18.5Q6.53125,18.03125,7,18Q7.46875,18.03125,7.5,18.5L7.5,25.5Q7.46875,25.96875,7,26ZM10,26Q9.53125,25.96875,9.5,25.5L9.5,18.5Q9.53125,18.03125,10,18Q10.46875,18.03125,10.5,18.5L10.5,25.5Q10.46875,25.96875,10,26Z" fill="#EF4444" fill-opacity="1" style="mix-blend-mode:passthrough"/></g></svg>