<?xml version="1.0" standalone="no"?><!DOCTYPE svg PUBLIC "-//W3C//DTD SVG 1.1//EN" "http://www.w3.org/Graphics/SVG/1.1/DTD/svg11.dtd"><svg t="1763374849725" class="icon" viewBox="0 0 1027 1024" version="1.1" xmlns="http://www.w3.org/2000/svg" p-id="11780" xmlns:xlink="http://www.w3.org/1999/xlink" width="200.5859375" height="200"><path d="M386.660218 991.477099a31.933447 31.933447 0 1 1-63.867893 0V33.469693a31.933447 31.933447 0 0 1 63.867893 0v958.007406z" fill="#737577" p-id="11781"></path><path d="M642.128793 31.933115a31.933447 31.933447 0 1 1 63.866893 0v958.006407a31.933447 31.933447 0 0 1-63.866893 0V31.933115z" fill="#144AEA" p-id="11782"></path><path d="M649.536937 53.907779a31.933447 31.933447 0 1 1 49.049606-40.875172l319.973878 383.840772a31.933447 31.933447 0 0 1-49.049607 40.875172L649.536937 53.907779z" fill="#144AEA" p-id="11783"></path><path d="M8.589106 625.68862a31.933447 31.933447 0 1 1 49.049607-40.875172l319.973878 383.841771a31.933447 31.933447 0 0 1-49.049607 40.875172L8.589106 625.68862z" fill="#737577" p-id="11784"></path></svg>